<svg id="svg" version="1.1" xmlns="http://www.w3.org/2000/svg" xmlns:xlink="http://www.w3.org/1999/xlink" width="400" height="400" viewBox="0, 0, 400,400"><g id="svgg"><path id="path0" d="M185.775 19.321 C 98.667 26.366,29.376 93.215,19.471 179.762 C 18.506 188.198,18.906 218.077,20.088 225.839 C 35.366 326.129,125.432 393.676,225.402 379.819 C 325.693 365.917,395.457 270.639,378.663 170.509 C 365.114 89.730,301.127 29.330,218.967 19.765 C 213.744 19.157,191.488 18.859,185.775 19.321 M217.104 26.743 C 274.449 33.014,323.747 65.463,352.012 115.543 C 357.516 125.295,366.469 146.463,366.469 149.725 C 366.469 150.375,366.083 150.384,343.535 150.299 L 320.602 150.212 320.178 149.365 C 319.945 148.899,318.539 146.003,317.054 142.930 C 288.717 84.276,220.708 55.660,158.510 76.218 C 123.990 87.628,93.421 115.545,79.897 148.010 C 79.470 149.035,78.961 149.985,78.765 150.122 C 78.035 150.631,32.854 150.427,32.854 149.915 C 32.854 148.677,37.156 137.019,40.118 130.229 C 69.986 61.767,143.628 18.708,217.104 26.743 M201.641 39.296 C 196.844 40.269,193.778 44.242,194.138 49.017 C 195.017 60.688,213.388 60.112,213.498 48.411 C 213.554 42.380,207.891 38.027,201.641 39.296 M182.588 40.147 C 175.565 42.102,173.271 50.356,178.339 55.433 C 181.870 58.971,186.967 59.180,191.194 55.961 C 193.225 54.414,193.241 54.291,191.604 52.854 L 190.321 51.727 189.572 52.412 C 186.621 55.109,182.484 54.658,180.853 51.461 C 178.169 46.199,184.142 41.087,188.745 44.707 L 189.602 45.381 190.697 43.675 C 191.751 42.031,191.768 41.951,191.154 41.487 C 189.259 40.052,185.206 39.418,182.588 40.147 M216.413 39.938 C 216.348 40.899,220.403 58.618,220.716 58.738 C 220.940 58.824,222.009 58.994,223.093 59.116 L 225.064 59.337 229.805 51.313 C 232.413 46.899,234.592 43.168,234.647 43.021 C 234.779 42.668,230.577 41.934,230.275 42.257 C 230.146 42.394,228.629 45.135,226.903 48.348 C 225.177 51.562,223.676 54.105,223.567 54.000 C 223.459 53.894,222.837 50.812,222.185 47.149 L 220.999 40.489 218.713 40.114 C 217.456 39.908,216.421 39.829,216.413 39.938 M164.771 42.807 C 160.797 43.773,158.848 45.713,158.848 48.702 C 158.848 51.914,160.458 53.068,165.563 53.516 C 168.867 53.807,170.025 54.345,170.025 55.591 C 170.025 57.285,165.860 57.958,162.587 56.792 C 160.801 56.155,160.953 56.057,160.382 58.220 L 159.926 59.948 161.810 60.496 C 168.559 62.458,175.527 58.893,174.432 54.038 C 173.775 51.123,172.485 50.299,167.836 49.823 C 163.627 49.393,162.275 48.406,163.891 46.944 C 164.599 46.303,166.748 46.150,169.531 46.543 L 171.237 46.784 171.611 44.984 C 172.056 42.838,172.230 43.094,170.038 42.678 C 167.824 42.258,166.941 42.280,164.771 42.807 M206.324 43.558 C 210.756 45.822,208.928 53.853,203.981 53.853 C 199.277 53.853,196.884 48.201,200.087 44.656 C 201.851 42.703,203.933 42.337,206.324 43.558 M238.280 44.080 C 237.428 46.412,233.481 60.847,233.650 61.017 C 233.951 61.320,246.991 65.061,247.159 64.893 C 247.234 64.818,247.500 64.075,247.751 63.241 L 248.207 61.724 243.579 60.392 L 238.950 59.061 239.032 58.010 C 239.077 57.432,239.258 56.581,239.433 56.119 L 239.753 55.279 243.742 56.429 C 245.937 57.061,247.834 57.578,247.958 57.578 C 248.187 57.578,249.056 54.520,248.872 54.361 C 248.817 54.314,247.019 53.771,244.877 53.156 C 242.735 52.540,240.928 51.997,240.861 51.948 C 240.626 51.778,241.622 48.434,241.908 48.434 C 242.068 48.434,244.108 48.981,246.442 49.650 C 248.776 50.320,250.786 50.767,250.908 50.644 C 251.134 50.419,252.020 47.648,251.890 47.574 C 251.852 47.552,249.070 46.753,245.708 45.798 C 242.346 44.843,239.337 43.963,239.022 43.842 C 238.680 43.710,238.380 43.807,238.280 44.080 M150.804 46.690 C 148.602 47.370,148.537 46.588,151.616 56.386 L 154.205 64.625 155.934 64.115 C 158.635 63.319,158.562 63.506,157.492 60.119 C 156.963 58.442,155.750 54.594,154.796 51.566 C 153.842 48.539,152.954 46.080,152.822 46.102 C 152.690 46.124,151.782 46.389,150.804 46.690 M253.053 57.616 C 251.143 62.107,249.628 65.822,249.685 65.870 C 249.945 66.091,253.126 67.401,253.402 67.401 C 253.572 67.401,254.156 66.410,254.699 65.199 C 255.243 63.988,255.750 62.997,255.828 62.997 C 258.085 62.997,259.436 64.879,259.446 68.036 C 259.453 70.035,259.534 70.133,262.066 71.217 C 264.476 72.248,264.380 72.417,263.675 68.417 C 263.044 64.834,263.033 65.030,263.861 65.030 C 268.360 65.030,270.681 57.529,267.179 54.307 C 266.025 53.246,257.999 49.450,256.909 49.450 C 256.697 49.450,254.962 53.124,253.053 57.616 M137.849 51.598 C 136.116 52.109,129.674 54.783,129.314 55.141 C 129.143 55.311,135.445 70.965,135.989 71.724 C 136.132 71.924,144.158 68.366,145.365 67.568 C 153.659 62.079,147.402 48.784,137.849 51.598 M264.098 56.756 C 266.767 59.767,263.194 62.356,258.956 60.482 L 257.098 59.660 257.966 57.518 C 259.437 53.891,259.171 54.082,261.396 55.051 C 262.463 55.516,263.679 56.283,264.098 56.756 M141.439 55.514 C 144.785 57.034,145.918 61.499,143.621 64.115 C 142.789 65.063,139.021 67.038,138.732 66.678 C 137.784 65.495,134.603 56.682,135.037 56.438 C 137.619 54.987,139.638 54.696,141.439 55.514 M213.548 77.402 C 312.149 88.969,358.033 206.119,293.270 280.948 C 230.239 353.777,111.651 329.694,82.026 238.049 C 54.621 153.274,125.221 67.040,213.548 77.402 M182.049 106.539 C 165.418 108.785,147.766 118.571,139.096 130.351 C 137.298 132.793,137.158 133.644,138.341 134.921 C 139.440 136.106,139.627 136.065,140.732 134.396 C 141.249 133.614,142.946 131.704,144.503 130.151 C 146.059 128.598,147.333 127.185,147.333 127.012 C 147.333 126.143,155.723 120.455,161.336 117.518 C 167.730 114.173,180.356 110.125,179.357 111.741 C 179.170 112.044,179.399 112.100,180.238 111.955 C 190.763 110.132,203.439 111.002,214.535 114.308 C 220.916 116.210,236.914 123.298,236.645 124.105 C 236.588 124.276,234.902 124.844,232.899 125.367 C 226.492 127.038,222.820 129.022,221.665 131.438 C 220.417 134.049,220.557 134.108,224.459 132.615 C 229.809 130.567,232.742 130.027,239.627 129.820 L 245.724 129.636 246.684 128.635 C 249.318 125.890,249.427 124.046,247.145 120.872 C 246.158 119.498,244.443 117.097,243.335 115.536 C 239.953 110.771,235.574 107.458,234.526 108.871 C 233.457 110.313,234.310 112.756,237.073 116.173 C 238.726 118.218,239.797 119.770,239.797 120.125 C 239.797 120.285,237.320 119.187,234.293 117.685 C 214.112 107.669,198.438 104.326,182.049 106.539 M234.716 159.905 C 222.515 167.001,212.265 173.043,211.939 173.331 C 211.169 174.013,211.005 226.019,211.770 227.003 C 212.125 227.460,252.971 251.427,256.311 253.138 C 257.198 253.593,257.564 253.626,258.174 253.308 C 260.985 251.842,302.675 227.426,302.874 227.129 C 303.011 226.924,303.125 214.760,303.128 200.097 L 303.133 173.437 299.492 171.280 C 286.273 163.447,257.718 146.995,257.348 146.998 C 257.102 147.001,246.918 152.809,234.716 159.905 M277.765 162.416 C 288.830 168.849,297.883 174.259,297.883 174.439 C 297.883 174.619,295.418 176.195,292.405 177.941 L 286.927 181.116 266.834 169.445 C 255.782 163.026,246.537 157.659,246.288 157.520 C 245.859 157.278,256.376 150.786,257.273 150.739 C 257.478 150.729,266.699 155.983,277.765 162.416 M142.083 151.442 C 108.179 155.697,90.553 193.956,109.236 222.736 C 129.926 254.608,178.795 248.125,190.855 211.909 C 201.450 180.092,175.008 147.309,142.083 151.442 M145.639 156.647 L 145.639 158.510 147.502 158.510 L 149.365 158.510 149.365 156.806 C 149.365 154.676,149.585 154.580,153.185 155.130 C 172.625 158.098,187.299 173.527,189.501 193.311 L 189.736 195.428 187.840 195.428 L 185.944 195.428 185.944 197.290 L 185.944 199.153 187.846 199.153 L 189.748 199.153 189.511 201.101 C 187.009 221.644,171.249 237.730,152.056 239.331 L 149.365 239.555 149.365 237.813 L 149.365 236.071 147.502 236.071 L 145.639 236.071 145.639 237.765 L 145.639 239.458 144.160 239.458 C 125.763 239.458,107.448 221.493,105.480 201.518 L 105.247 199.153 107.154 199.153 L 109.060 199.153 109.060 197.290 L 109.060 195.428 107.197 195.428 L 105.334 195.428 105.334 194.287 C 105.334 175.278,124.742 155.747,144.539 154.835 L 145.639 154.784 145.639 156.647 M75.936 157.335 C 76.035 157.435,75.594 159.226,74.956 161.315 C 67.119 186.972,67.200 217.180,75.167 239.934 C 75.553 241.035,75.868 242.064,75.868 242.221 C 75.868 242.378,65.673 242.506,53.212 242.506 L 30.556 242.506 30.348 241.677 C 23.913 216.040,23.971 182.691,30.492 158.474 L 30.847 157.155 53.301 157.155 C 65.651 157.155,75.836 157.236,75.936 157.335 M368.644 157.451 C 369.453 158.759,372.234 174.000,373.133 182.049 C 373.895 188.871,374.004 210.539,373.309 216.935 C 372.435 224.978,370.536 236.085,369.154 241.236 L 368.814 242.506 346.168 242.506 L 323.522 242.506 324.523 239.204 C 332.483 212.942,332.346 184.673,324.140 160.397 C 323.610 158.829,323.265 157.458,323.372 157.350 C 323.693 157.030,368.445 157.129,368.644 157.451 M250.170 163.537 C 254.245 165.929,263.420 171.282,270.559 175.433 C 277.698 179.584,283.414 183.093,283.260 183.230 C 283.106 183.367,280.748 184.777,278.020 186.362 L 273.059 189.245 254.311 178.350 C 244.000 172.358,234.751 166.990,233.758 166.420 L 231.953 165.385 237.145 162.302 C 240.001 160.606,242.433 159.211,242.549 159.203 C 242.666 159.194,246.095 161.144,250.170 163.537 M141.914 165.453 L 141.914 170.025 143.424 170.025 L 144.933 170.025 145.032 167.401 L 145.131 164.776 147.325 167.401 L 149.519 170.025 151.305 170.025 L 153.091 170.025 153.091 165.453 L 153.091 160.881 151.397 160.881 L 149.704 160.881 149.704 163.280 C 149.704 166.113,149.678 166.112,147.190 163.167 C 145.286 160.914,145.234 160.881,143.586 160.881 L 141.914 160.881 141.914 165.453 M248.980 179.036 C 260.043 185.483,269.219 190.874,269.372 191.017 C 269.525 191.159,266.886 192.874,263.508 194.826 L 257.366 198.375 237.658 186.882 C 226.819 180.561,217.594 175.161,217.158 174.881 C 216.384 174.385,216.511 174.288,222.408 170.861 C 225.731 168.930,228.544 167.342,228.658 167.333 C 228.773 167.323,237.917 172.590,248.980 179.036 M153.373 181.570 L 141.293 193.086 135.640 207.212 C 132.531 214.981,129.695 222.076,129.339 222.977 C 128.418 225.304,128.153 225.523,141.382 213.040 L 153.407 201.693 158.870 187.976 C 165.469 171.410,165.997 170.021,165.692 170.040 C 165.560 170.048,160.017 175.237,153.373 181.570 M235.116 189.190 C 246.167 195.632,255.323 201.013,255.464 201.148 C 255.605 201.283,255.681 212.094,255.633 225.172 L 255.546 248.952 235.140 237.052 L 214.733 225.153 214.733 201.315 C 214.733 188.204,214.799 177.477,214.879 177.477 C 214.960 177.477,224.066 182.748,235.116 189.190 M300.085 201.287 L 300.085 225.097 280.694 236.413 C 270.030 242.638,260.808 248.018,260.201 248.371 L 259.098 249.011 259.185 225.058 L 259.272 201.105 265.030 197.721 C 268.196 195.861,270.978 194.262,271.211 194.169 C 271.537 194.039,271.634 195.022,271.634 198.432 C 271.634 205.323,271.199 205.287,281.626 199.252 C 289.188 194.875,288.569 195.760,288.569 189.320 L 288.569 184.018 294.073 180.765 C 297.100 178.976,299.691 177.504,299.831 177.495 C 299.970 177.485,300.085 188.191,300.085 201.287 M285.182 189.644 L 285.182 193.344 280.356 196.127 C 277.701 197.658,275.415 198.974,275.275 199.052 C 275.135 199.130,275.021 197.541,275.021 195.522 L 275.021 191.850 280.017 188.925 C 282.765 187.316,285.051 185.987,285.097 185.972 C 285.144 185.957,285.182 187.609,285.182 189.644 M45.190 192.182 C 38.290 195.187,38.660 205.298,45.761 207.803 C 54.150 210.763,60.591 200.023,54.136 193.836 C 52.014 191.802,47.837 191.030,45.190 192.182 M112.243 196.274 L 113.267 200.847 114.683 200.847 L 116.100 200.847 116.662 198.551 C 117.636 194.577,117.755 194.573,118.805 198.476 L 119.397 200.677 120.805 200.780 C 122.422 200.898,122.236 201.237,123.277 196.274 C 123.667 194.412,124.068 192.621,124.167 192.295 C 124.317 191.801,124.127 191.702,123.024 191.702 L 121.700 191.702 121.265 194.137 C 120.761 196.956,120.315 196.807,119.592 193.578 L 119.172 191.702 117.831 191.702 C 117.060 191.702,116.429 191.882,116.347 192.125 C 116.268 192.358,115.957 193.427,115.655 194.501 C 115.047 196.661,114.667 196.759,114.337 194.839 C 113.775 191.575,113.850 191.702,112.483 191.702 L 111.218 191.702 112.243 196.274 M174.428 197.290 L 174.428 202.879 179.001 202.879 L 183.573 202.879 183.573 201.693 L 183.573 200.508 180.694 200.508 L 177.815 200.508 177.815 199.323 L 177.815 198.137 180.694 198.137 L 183.573 198.137 183.573 197.135 L 183.573 196.132 180.779 196.034 L 177.985 195.936 177.879 194.835 L 177.772 193.734 180.673 193.734 L 183.573 193.734 183.573 192.718 L 183.573 191.702 179.001 191.702 L 174.428 191.702 174.428 197.290 M350.381 192.338 C 342.383 196.007,345.136 208.298,353.955 208.298 C 362.796 208.298,365.280 195.583,357.106 192.168 C 355.505 191.499,352.018 191.587,350.381 192.338 M149.111 195.697 C 150.239 196.674,149.676 198.923,148.158 199.500 C 146.416 200.162,144.423 198.083,145.275 196.492 C 146.143 194.869,147.765 194.533,149.111 195.697 M271.126 217.044 L 264.352 221.023 264.262 229.624 C 264.144 240.790,263.535 240.418,272.988 234.946 C 281.056 230.276,280.430 231.349,280.430 222.185 C 280.430 211.274,280.697 211.421,271.126 217.044 M277.051 223.116 L 277.049 228.789 274.095 230.483 C 272.470 231.414,270.261 232.680,269.186 233.296 L 267.231 234.417 267.243 228.724 L 267.256 223.031 272.070 220.246 C 274.718 218.714,276.922 217.457,276.969 217.452 C 277.015 217.447,277.052 219.996,277.051 223.116 M218.474 219.964 C 217.065 221.662,227.233 228.637,229.265 227.365 C 231.122 226.203,230.384 225.337,224.716 222.030 C 220.277 219.439,219.205 219.084,218.474 219.964 M144.373 222.901 C 141.087 223.850,141.806 227.679,145.489 228.840 C 147.676 229.529,148.646 230.393,148.046 231.117 C 147.245 232.082,146.263 232.021,145.257 230.944 C 143.663 229.238,141.566 230.092,142.601 232.026 C 143.844 234.348,149.586 234.191,150.673 231.805 C 151.813 229.303,150.845 227.772,147.332 226.520 C 145.957 226.030,145.131 225.546,145.131 225.230 C 145.131 224.516,147.098 224.373,147.657 225.046 C 148.151 225.642,150.720 225.780,150.720 225.211 C 150.720 223.187,147.474 222.006,144.373 222.901 M80.568 254.022 C 121.878 343.986,242.311 357.996,303.309 279.932 C 309.619 271.857,317.964 257.443,320.515 250.212 C 320.744 249.563,366.808 249.260,366.808 249.907 C 366.808 253.104,357.608 274.935,352.157 284.674 C 284.998 404.656,113.298 404.101,46.766 283.688 C 41.728 274.570,32.515 252.611,32.515 249.722 C 32.515 249.663,42.889 249.653,55.570 249.701 L 78.624 249.788 80.568 254.022 M258.946 269.136 C 258.208 270.165,256.493 272.062,255.136 273.352 C 253.778 274.642,252.667 275.843,252.667 276.022 C 252.667 276.409,248.954 279.397,245.959 281.419 C 242.331 283.870,235.067 287.582,231.177 288.973 C 224.783 291.260,218.995 292.520,220.878 291.214 C 221.214 290.981,221.155 290.943,220.660 291.071 C 217.252 291.952,209.264 292.366,203.218 291.975 C 191.426 291.211,184.491 289.248,169.882 282.538 C 163.335 279.531,162.475 278.933,164.159 278.561 C 173.656 276.462,179.170 273.200,179.170 269.682 C 179.170 269.141,179.476 269.066,175.420 270.594 C 169.939 272.660,165.731 273.407,159.752 273.375 C 153.841 273.344,153.546 273.460,152.052 276.420 C 150.674 279.151,150.657 279.096,154.463 284.543 C 158.138 289.804,161.212 293.073,163.594 294.251 L 165.096 294.994 165.517 294.237 C 166.147 293.103,166.045 291.477,165.284 290.509 C 164.911 290.035,164.606 289.516,164.606 289.356 C 164.606 289.196,163.976 288.305,163.206 287.377 C 161.364 285.159,160.059 283.181,160.287 282.954 C 160.387 282.853,163.057 284.067,166.220 285.650 C 181.548 293.324,190.748 296.111,203.810 297.034 C 223.813 298.448,244.272 290.685,257.645 276.607 C 262.308 271.698,263.208 269.740,261.539 268.141 C 260.347 266.998,260.528 266.929,258.946 269.136 M146.475 333.700 C 145.846 335.371,140.924 350.347,140.987 350.396 C 141.938 351.132,149.958 353.260,151.780 353.260 C 161.015 353.260,164.179 340.769,156.002 336.593 C 152.941 335.030,146.689 333.131,146.475 333.700 M244.539 336.371 C 242.210 337.130,240.192 337.856,240.054 337.983 C 239.850 338.172,245.015 354.443,245.430 354.923 C 245.612 355.133,249.619 353.865,249.619 353.598 C 249.619 353.470,249.311 352.470,248.934 351.375 C 248.090 348.921,248.159 348.730,250.102 348.186 L 251.663 347.749 253.664 349.658 C 255.974 351.861,255.637 351.777,258.418 350.838 L 260.575 350.110 259.563 349.229 C 259.006 348.745,257.798 347.720,256.879 346.951 C 255.295 345.626,255.237 345.520,255.767 344.919 C 257.911 342.485,256.705 337.085,253.677 335.564 C 251.762 334.602,249.302 334.819,244.539 336.371 M152.997 339.214 C 157.764 341.346,156.920 348.718,151.792 349.743 C 150.542 349.993,146.201 348.633,146.419 348.060 C 146.500 347.846,147.203 345.690,147.980 343.268 C 148.758 340.847,149.463 338.664,149.547 338.419 C 149.725 337.899,150.412 338.058,152.997 339.214 M251.997 339.629 C 253.796 341.915,250.915 345.470,247.263 345.470 C 246.964 345.470,245.042 340.106,245.266 339.895 C 246.650 338.585,251.040 338.412,251.997 339.629 M229.890 340.151 C 224.831 341.171,223.201 341.622,223.201 341.999 C 223.201 342.466,226.584 359.119,226.704 359.245 C 226.810 359.356,240.424 356.471,240.594 356.302 C 240.688 356.207,240.616 355.431,240.434 354.576 L 240.102 353.022 235.462 353.973 C 232.909 354.496,230.720 354.931,230.595 354.939 C 230.320 354.957,229.556 351.534,229.784 351.305 C 229.873 351.216,231.732 350.780,233.914 350.337 C 238.586 349.388,238.204 349.631,237.806 347.859 C 237.373 345.929,237.626 345.978,233.132 346.944 C 228.654 347.906,228.764 347.934,228.442 345.739 C 228.172 343.896,227.697 344.149,233.700 342.930 L 237.257 342.207 237.156 340.707 C 237.018 338.629,237.319 338.652,229.890 340.151 M163.335 347.905 C 162.364 352.781,161.605 356.795,161.648 356.825 C 161.830 356.949,175.621 359.625,175.698 359.551 C 176.321 358.953,176.288 356.279,175.656 356.130 C 175.260 356.037,173.139 355.601,170.943 355.161 C 168.746 354.721,166.890 354.302,166.818 354.229 C 166.699 354.110,167.292 350.838,167.470 350.633 C 167.511 350.586,169.423 350.930,171.719 351.397 C 176.532 352.377,176.091 352.478,176.203 350.380 L 176.291 348.735 173.412 348.160 C 171.829 347.844,169.984 347.487,169.313 347.368 L 168.093 347.151 168.432 345.379 C 168.618 344.405,168.810 343.558,168.858 343.499 C 168.905 343.439,171.020 343.804,173.556 344.310 C 176.093 344.816,178.227 345.170,178.299 345.096 C 178.371 345.022,178.533 344.263,178.661 343.408 L 178.892 341.854 172.511 340.594 C 169.002 339.901,165.899 339.268,165.616 339.186 C 165.195 339.066,164.781 340.650,163.335 347.905 M182.055 342.907 C 181.838 343.954,180.471 360.095,180.591 360.195 C 180.648 360.242,183.133 360.465,186.113 360.690 C 189.094 360.915,191.780 361.169,192.081 361.253 C 192.523 361.376,192.665 361.058,192.806 359.619 C 193.026 357.390,193.376 357.610,188.993 357.221 C 186.670 357.015,185.272 356.749,185.282 356.515 C 185.290 356.308,185.579 353.091,185.924 349.365 C 186.269 345.639,186.529 342.571,186.502 342.547 C 185.903 342.017,182.177 342.320,182.055 342.907 M217.777 342.318 C 216.974 342.444,216.835 342.811,215.270 348.956 C 214.359 352.534,213.515 355.575,213.396 355.714 C 213.276 355.853,211.907 353.069,210.354 349.528 L 207.530 343.090 205.289 343.310 C 204.057 343.431,203.004 343.566,202.951 343.610 C 202.897 343.653,204.745 347.579,207.058 352.334 L 211.262 360.979 213.590 360.800 C 214.871 360.702,215.930 360.604,215.943 360.582 C 215.957 360.560,217.159 356.579,218.614 351.736 C 220.069 346.892,221.332 342.739,221.420 342.506 C 221.579 342.085,219.836 341.995,217.777 342.318 M196.444 352.244 L 196.444 361.389 198.645 361.389 L 200.847 361.389 200.847 352.244 L 200.847 343.099 198.645 343.099 L 196.444 343.099 196.444 352.244 " stroke="none" fill="#f1eaca" fill-rule="evenodd"></path><path id="path1" d="M0.000 200.000 L 0.000 400.000 200.000 400.000 L 400.000 400.000 400.000 200.000 L 400.000 0.000 200.000 0.000 L 0.000 0.000 0.000 200.000 M217.782 19.469 C 296.186 27.505,360.713 84.967,377.131 161.373 C 401.610 275.297,316.249 381.391,200.000 381.525 C 107.814 381.632,32.492 315.744,19.585 223.709 C 18.707 217.444,18.283 190.208,18.950 182.896 C 26.850 96.347,96.292 27.343,183.573 19.311 C 192.083 18.528,209.379 18.608,217.782 19.469 M190.008 26.424 C 127.450 30.481,74.542 64.819,44.942 120.576 C 40.821 128.338,33.192 147.168,33.192 149.576 C 33.192 149.967,36.862 150.042,56.013 150.042 L 78.834 150.042 79.267 148.942 C 84.789 134.894,97.288 117.026,109.839 105.239 C 174.551 44.467,278.194 63.384,317.397 143.124 C 319.052 146.491,320.406 149.424,320.406 149.644 C 320.406 149.946,326.001 150.042,343.438 150.042 C 356.105 150.042,366.469 149.998,366.469 149.944 C 366.469 149.465,363.084 139.957,361.384 135.660 C 334.179 66.910,263.214 21.676,190.008 26.424 M207.305 39.489 C 213.819 41.397,215.883 50.120,210.957 54.918 C 205.770 59.971,196.252 57.807,194.268 51.123 C 191.961 43.355,199.015 37.060,207.305 39.489 M189.064 40.312 C 192.454 41.608,192.466 41.689,189.827 45.314 C 189.788 45.368,189.028 45.025,188.138 44.552 C 184.236 42.477,180.525 44.520,180.525 48.744 C 180.525 53.652,185.393 55.761,189.136 52.475 L 190.286 51.465 191.876 52.840 L 193.465 54.216 192.249 55.362 C 185.660 61.576,175.432 57.579,175.448 48.797 C 175.459 42.284,182.594 37.838,189.064 40.312 M219.149 39.969 C 221.400 40.395,221.001 39.511,222.365 47.089 C 223.012 50.686,223.584 53.672,223.636 53.724 C 223.689 53.776,225.011 51.426,226.576 48.501 C 230.609 40.960,229.904 41.702,232.601 42.162 C 234.138 42.424,234.854 42.694,234.790 42.986 C 234.696 43.411,225.694 58.819,225.205 59.392 C 224.677 60.012,220.227 58.939,220.030 58.146 C 219.781 57.140,216.088 39.913,216.088 39.754 C 216.088 39.532,217.294 39.617,219.149 39.969 M171.774 42.934 C 172.530 43.691,171.487 47.179,170.573 46.950 C 166.861 46.018,163.590 46.491,163.590 47.960 C 163.590 49.016,164.322 49.296,167.908 49.612 C 178.276 50.526,176.440 61.304,165.916 61.304 C 163.927 61.304,161.154 60.732,160.372 60.160 C 159.553 59.561,160.327 55.714,161.192 56.087 C 165.137 57.791,169.386 57.496,169.620 55.502 C 169.752 54.373,168.763 53.977,165.139 53.710 C 158.679 53.234,156.302 48.561,160.493 44.577 C 162.579 42.594,170.308 41.469,171.774 42.934 M201.598 43.578 C 196.803 45.941,198.602 53.514,203.958 53.514 C 208.859 53.514,210.490 46.315,206.184 43.690 C 204.853 42.878,203.104 42.836,201.598 43.578 M245.498 45.532 C 248.913 46.538,251.788 47.442,251.887 47.540 C 252.121 47.774,251.312 51.145,251.025 51.136 C 250.904 51.132,248.788 50.541,246.324 49.823 L 241.844 48.518 241.386 50.085 C 240.824 52.006,240.355 51.633,245.017 52.976 C 247.198 53.605,249.042 54.179,249.115 54.252 C 249.236 54.373,248.301 57.917,248.148 57.917 C 248.112 57.917,246.270 57.383,244.053 56.731 C 241.837 56.079,239.962 55.607,239.887 55.682 C 239.812 55.757,239.546 56.497,239.297 57.326 L 238.843 58.834 243.424 60.145 C 245.944 60.867,248.065 61.613,248.138 61.804 C 248.338 62.326,247.403 65.205,247.049 65.159 C 246.879 65.138,243.670 64.242,239.918 63.168 L 233.096 61.217 233.697 59.144 C 234.028 58.003,235.087 54.327,236.049 50.974 C 237.012 47.621,237.878 44.610,237.974 44.285 C 238.224 43.438,238.603 43.501,245.498 45.532 M155.939 54.473 C 157.353 59.006,158.510 62.911,158.510 63.150 C 158.510 63.672,154.485 64.872,154.098 64.465 C 153.846 64.200,148.688 47.983,148.688 47.455 C 148.688 47.113,152.870 45.773,153.144 46.026 C 153.267 46.139,154.524 49.941,155.939 54.473 M261.323 51.000 C 266.345 53.164,267.644 54.039,268.589 55.891 C 270.282 59.209,268.298 63.839,264.670 65.037 C 263.326 65.480,263.351 65.331,264.014 69.094 C 264.292 70.677,264.521 72.078,264.521 72.205 C 264.521 72.333,263.397 71.969,262.023 71.395 L 259.524 70.352 259.316 68.622 C 259.202 67.671,259.106 66.359,259.104 65.707 C 259.100 64.624,258.970 64.468,257.590 63.901 C 255.725 63.134,255.642 63.186,254.702 65.700 C 253.832 68.025,253.843 68.022,251.243 66.791 L 249.310 65.876 252.882 57.494 C 254.846 52.883,256.563 49.111,256.696 49.111 C 256.830 49.111,258.912 49.961,261.323 51.000 M143.872 51.668 C 150.092 54.259,151.299 63.371,145.948 67.348 C 144.733 68.251,136.159 72.260,135.932 72.031 C 135.783 71.881,128.733 55.069,128.799 55.021 C 132.274 52.481,141.108 50.516,143.872 51.668 M259.127 55.292 C 258.963 55.711,258.504 56.803,258.107 57.719 C 257.281 59.624,257.300 59.659,259.708 60.602 C 262.018 61.508,262.677 61.486,263.690 60.473 C 265.484 58.679,264.718 56.704,261.718 55.388 C 259.352 54.351,259.492 54.356,259.127 55.292 M136.664 55.938 C 135.732 56.348,134.924 56.715,134.868 56.754 C 134.711 56.861,138.527 65.832,138.884 66.194 C 139.078 66.392,139.974 66.141,141.248 65.532 C 148.067 62.273,143.585 52.891,136.664 55.938 M189.162 77.240 C 90.283 87.225,41.973 200.323,103.595 277.561 C 146.911 331.856,227.695 339.228,280.243 293.682 C 342.100 240.068,335.923 142.330,267.840 97.437 C 244.631 82.133,215.290 74.601,189.162 77.240 M198.525 106.019 C 209.822 107.135,219.047 110.039,232.684 116.774 C 236.317 118.567,239.424 120.100,239.589 120.180 C 239.968 120.362,238.192 117.770,236.697 115.958 C 234.931 113.818,233.559 111.022,233.802 110.056 C 234.779 106.164,239.245 109.238,245.385 118.030 C 249.737 124.260,249.576 123.806,248.354 126.418 C 246.747 129.852,246.295 130.053,240.261 130.019 C 234.260 129.986,230.050 130.731,224.574 132.794 C 220.411 134.363,220.055 134.237,221.324 131.642 C 222.746 128.735,225.766 127.045,233.001 125.105 C 234.876 124.602,236.410 124.083,236.410 123.953 C 236.410 123.710,225.081 118.444,220.491 116.553 C 208.813 111.742,190.724 109.865,179.551 112.306 C 178.925 112.442,178.791 112.365,178.947 111.956 C 179.198 111.302,179.300 111.297,176.158 112.099 C 168.835 113.969,161.500 117.196,154.883 121.460 C 151.483 123.651,147.671 126.615,147.671 127.068 C 147.671 127.252,146.474 128.529,145.010 129.906 C 143.547 131.283,141.768 133.253,141.059 134.283 C 139.541 136.487,139.700 136.442,138.289 135.073 C 136.463 133.304,137.568 131.059,142.904 125.689 C 157.132 111.372,177.999 103.993,198.525 106.019 M280.398 159.904 C 292.623 167.005,302.815 173.054,303.048 173.347 C 303.821 174.320,303.648 226.662,302.870 227.366 C 301.726 228.401,258.023 253.683,257.378 253.683 C 256.677 253.683,212.018 227.795,211.605 227.149 C 211.467 226.933,211.391 214.719,211.435 200.006 L 211.516 173.255 216.935 170.071 C 239.336 156.906,256.690 147.003,257.367 146.999 C 257.818 146.996,267.941 152.668,280.398 159.904 M151.056 151.087 C 183.718 154.146,203.147 188.774,188.571 217.951 C 170.223 254.681,116.785 250.871,103.811 211.909 C 94.078 182.682,115.413 151.987,146.317 150.756 C 146.782 150.737,148.915 150.886,151.056 151.087 M251.703 154.023 C 247.028 156.757,246.264 157.314,246.792 157.603 C 247.136 157.791,256.304 163.113,267.166 169.428 L 286.915 180.911 292.315 177.772 C 295.284 176.046,297.714 174.545,297.714 174.436 C 297.714 174.267,257.971 150.984,257.431 150.837 C 257.326 150.808,254.748 152.242,251.703 154.023 M139.712 155.680 C 120.923 159.654,107.750 174.296,105.564 193.634 L 105.403 195.057 107.316 195.158 L 109.229 195.258 109.229 197.290 L 109.229 199.323 107.306 199.423 L 105.382 199.524 105.555 200.778 C 108.529 222.430,122.732 236.830,143.522 239.273 L 145.301 239.481 145.301 237.607 L 145.301 235.732 147.333 235.732 L 149.365 235.732 149.365 237.595 C 149.365 238.746,149.510 239.458,149.745 239.458 C 168.498 239.458,187.055 221.730,189.166 201.797 L 189.406 199.530 187.590 199.426 L 185.775 199.323 185.775 197.290 L 185.775 195.258 187.553 195.156 C 189.655 195.035,189.658 195.022,188.808 190.138 C 185.672 172.120,171.242 158.003,153.311 155.411 C 149.640 154.880,149.365 155.001,149.365 157.144 L 149.365 158.848 147.333 158.848 L 145.301 158.848 145.301 156.986 L 145.301 155.123 143.692 155.150 C 142.807 155.166,141.016 155.404,139.712 155.680 M30.541 158.933 C 24.495 183.050,24.180 212.360,29.693 237.849 L 30.627 242.168 53.078 242.168 C 65.426 242.168,75.529 242.075,75.529 241.961 C 75.529 241.847,75.000 240.056,74.354 237.981 C 66.510 212.796,66.976 185.654,75.725 158.088 C 75.903 157.525,74.712 157.494,53.408 157.494 L 30.902 157.494 30.541 158.933 M323.545 157.919 C 332.383 180.950,332.842 214.061,324.674 239.458 L 323.857 241.998 346.233 242.085 C 358.540 242.133,368.654 242.128,368.708 242.074 C 369.273 241.509,371.936 226.855,372.722 219.983 C 374.992 200.142,373.456 175.990,368.832 158.819 L 368.475 157.494 345.929 157.494 C 327.988 157.494,323.416 157.580,323.545 157.919 M237.165 162.479 L 232.331 165.366 234.794 166.796 C 236.148 167.583,245.306 172.903,255.145 178.619 L 273.033 189.011 278.113 186.077 C 280.907 184.463,283.069 183.031,282.918 182.895 C 282.766 182.759,277.841 179.862,271.973 176.458 C 266.105 173.054,257.179 167.851,252.136 164.897 C 247.094 161.943,242.750 159.541,242.483 159.559 C 242.217 159.577,239.823 160.891,237.165 162.479 M147.228 162.936 L 149.196 165.330 149.295 162.936 L 149.395 160.542 151.412 160.542 L 153.429 160.542 153.429 165.453 L 153.429 170.364 151.482 170.359 L 149.534 170.354 147.417 167.779 L 145.301 165.204 145.301 167.784 L 145.301 170.364 143.438 170.364 L 141.575 170.364 141.575 165.453 L 141.575 160.542 143.418 160.542 L 145.260 160.542 147.228 162.936 M222.693 170.903 C 219.712 172.658,217.230 174.224,217.177 174.383 C 217.123 174.542,226.147 179.960,237.229 186.423 L 257.379 198.175 263.333 194.714 C 266.608 192.810,269.168 191.144,269.021 191.011 C 268.247 190.311,228.980 167.659,228.583 167.683 C 228.324 167.698,225.673 169.147,222.693 170.903 M165.101 172.771 C 164.434 174.521,161.603 181.696,158.810 188.716 L 153.732 201.480 147.738 207.196 C 135.865 218.520,128.622 225.263,128.481 225.123 C 128.403 225.044,131.212 217.783,134.725 208.987 L 141.112 192.994 147.051 187.352 C 150.318 184.249,155.925 178.920,159.511 175.509 C 163.098 172.097,166.096 169.370,166.174 169.448 C 166.251 169.525,165.769 171.021,165.101 172.771 M214.816 201.266 L 214.903 225.021 235.055 236.797 C 246.139 243.274,255.323 248.580,255.464 248.588 C 255.605 248.596,255.681 237.972,255.633 224.979 L 255.546 201.355 238.611 191.447 C 229.297 185.997,220.113 180.633,218.203 179.525 L 214.729 177.511 214.816 201.266 M294.073 180.969 L 288.908 184.060 288.903 189.151 C 288.896 195.694,289.395 195.019,280.999 199.840 C 271.538 205.273,271.634 205.284,271.634 198.711 C 271.634 194.703,271.585 194.358,271.047 194.564 C 270.725 194.688,267.908 196.267,264.789 198.072 L 259.117 201.355 259.110 224.979 C 259.106 237.972,259.180 248.603,259.275 248.603 C 259.370 248.603,268.514 243.313,279.597 236.847 L 299.746 225.090 299.746 201.453 C 299.746 188.452,299.632 177.830,299.492 177.847 C 299.352 177.864,296.914 179.269,294.073 180.969 M280.017 189.186 L 275.021 192.096 275.021 195.455 C 275.021 197.303,275.106 198.815,275.209 198.815 C 275.664 198.815,284.920 193.250,285.057 192.894 C 285.141 192.676,285.165 191.098,285.111 189.386 L 285.013 186.275 280.017 189.186 M52.009 192.167 C 59.999 195.888,57.816 207.749,49.049 208.244 C 43.974 208.531,40.441 205.553,40.048 200.657 C 39.515 194.010,46.032 189.384,52.009 192.167 M114.348 193.661 C 114.858 196.520,114.980 196.528,115.661 193.750 L 116.246 191.363 117.720 191.363 L 119.195 191.363 119.716 193.118 C 120.003 194.083,120.237 195.074,120.237 195.320 C 120.237 196.467,120.863 195.588,121.065 194.157 C 121.448 191.443,121.502 191.363,122.969 191.363 C 124.610 191.363,124.611 191.383,123.355 196.952 L 122.439 201.016 121.001 201.120 C 119.376 201.238,119.354 201.208,118.347 197.629 C 117.712 195.370,117.785 195.300,116.674 199.238 L 116.125 201.185 114.631 201.185 C 113.361 201.185,113.111 201.071,112.958 200.423 C 112.216 197.262,111.092 192.012,111.092 191.703 C 111.092 191.467,111.635 191.364,112.531 191.428 L 113.969 191.533 114.348 193.661 M183.912 192.718 L 183.912 194.073 181.033 194.073 C 178.188 194.073,178.154 194.083,178.154 194.920 C 178.154 195.756,178.188 195.766,181.033 195.766 L 183.912 195.766 183.912 197.121 L 183.912 198.476 181.033 198.476 C 178.188 198.476,178.154 198.486,178.154 199.323 C 178.154 200.159,178.188 200.169,181.033 200.169 L 183.912 200.169 183.912 201.693 L 183.912 203.218 179.001 203.218 L 174.090 203.218 174.090 197.290 L 174.090 191.363 179.001 191.363 L 183.912 191.363 183.912 192.718 M356.384 191.717 C 359.590 192.608,362.405 196.281,362.405 199.576 C 362.405 210.615,346.149 211.500,345.527 200.495 C 345.179 194.349,350.467 190.074,356.384 191.717 M145.978 195.766 C 144.697 197.048,145.596 199.492,147.348 199.492 C 148.169 199.492,149.704 198.058,149.704 197.290 C 149.704 195.624,147.161 194.584,145.978 195.766 M279.688 213.228 C 280.737 213.964,280.883 230.169,279.848 231.053 C 279.522 231.332,276.308 233.260,272.707 235.339 C 263.333 240.750,263.842 241.066,263.849 229.837 C 263.852 225.349,263.986 221.470,264.146 221.217 C 264.468 220.708,278.032 212.714,278.587 212.706 C 278.778 212.703,279.274 212.938,279.688 213.228 M272.067 220.436 L 267.589 223.031 267.579 228.554 L 267.570 234.077 269.009 233.208 C 269.801 232.730,271.855 231.540,273.575 230.564 L 276.700 228.789 276.708 223.285 C 276.711 220.258,276.677 217.795,276.630 217.811 C 276.583 217.827,274.530 219.008,272.067 220.436 M225.078 222.029 C 230.457 225.211,231.197 226.069,229.649 227.322 C 228.523 228.234,228.399 228.192,223.131 225.107 C 217.851 222.015,217.069 221.163,218.280 219.824 C 219.254 218.748,219.865 218.946,225.078 222.029 M149.384 222.872 C 150.028 223.217,151.058 224.867,151.058 225.555 C 151.058 226.213,148.372 225.948,147.344 225.187 C 146.773 224.766,146.132 224.554,145.805 224.679 C 144.822 225.057,145.437 225.635,147.686 226.446 C 151.268 227.739,152.441 230.233,150.494 232.419 C 147.970 235.253,141.914 233.898,141.914 230.499 C 141.914 229.558,144.562 229.805,145.361 230.821 C 146.081 231.737,146.957 231.909,147.604 231.262 C 148.393 230.473,147.986 230.024,145.679 229.143 C 142.357 227.874,141.437 226.510,142.454 224.365 C 143.254 222.680,147.369 221.794,149.384 222.872 M32.854 249.963 C 32.854 251.803,39.128 267.910,42.818 275.544 C 79.747 351.935,165.606 390.702,247.076 367.771 C 301.898 352.339,346.329 310.122,364.574 256.125 L 366.772 249.619 343.759 249.619 C 327.898 249.619,320.745 249.730,320.745 249.975 C 320.745 251.787,313.505 265.432,308.714 272.650 C 269.947 331.056,192.385 348.490,132.165 312.334 C 109.374 298.651,88.814 275.041,79.247 251.566 L 78.453 249.619 55.653 249.619 C 40.423 249.619,32.854 249.733,32.854 249.963 M261.654 268.067 C 263.124 269.537,263.118 269.726,261.523 272.193 C 255.339 281.762,239.835 291.695,225.354 295.366 C 206.748 300.082,189.010 297.222,165.903 285.777 C 159.837 282.773,159.805 282.780,162.728 286.425 C 166.104 290.634,166.992 293.388,165.400 294.710 C 163.620 296.187,156.307 288.669,151.348 280.265 L 150.646 279.074 151.383 277.258 C 152.098 275.496,153.791 273.381,154.570 273.276 C 154.781 273.248,157.316 273.200,160.203 273.170 C 166.117 273.108,168.902 272.626,174.259 270.737 C 180.038 268.700,180.084 268.712,178.514 271.877 C 177.312 274.298,173.419 276.396,167.141 278.004 C 165.188 278.504,163.590 279.018,163.590 279.145 C 163.590 279.496,172.646 283.740,179.170 286.447 C 190.192 291.020,204.434 292.913,216.494 291.408 C 220.819 290.868,221.261 290.855,220.999 291.279 C 220.702 291.760,221.215 291.706,224.200 290.944 C 230.716 289.281,239.756 285.354,244.708 282.038 C 248.565 279.454,252.651 276.285,252.480 276.009 C 252.386 275.857,253.596 274.497,255.169 272.987 C 256.741 271.477,258.536 269.492,259.158 268.576 C 260.509 266.584,260.229 266.641,261.654 268.067 M151.026 334.464 C 158.585 337.053,160.910 339.391,160.862 344.358 C 160.786 352.231,154.870 355.198,145.417 352.103 L 140.622 350.534 143.550 341.736 C 145.160 336.897,146.499 332.938,146.525 332.938 C 146.551 332.938,148.576 333.625,151.026 334.464 M253.696 335.394 C 256.715 336.916,258.100 342.120,256.174 344.701 L 255.490 345.616 258.173 347.782 C 261.156 350.190,261.156 350.175,258.124 351.177 L 255.961 351.892 253.721 349.924 L 251.482 347.956 249.910 348.454 L 248.337 348.953 249.147 351.335 C 249.593 352.645,249.958 353.754,249.958 353.800 C 249.958 353.989,245.498 355.348,245.353 355.204 C 245.266 355.117,243.913 351.207,242.347 346.516 L 239.499 337.986 240.410 337.632 C 248.010 334.678,251.209 334.139,253.696 335.394 M148.208 343.048 C 146.317 348.836,146.293 348.280,148.463 348.964 C 155.272 351.111,159.404 342.606,153.073 339.475 C 149.749 337.831,149.965 337.673,148.208 343.048 M237.405 340.439 C 237.858 342.550,238.448 342.167,233.023 343.285 C 230.508 343.804,228.423 344.243,228.390 344.261 C 228.125 344.402,229.103 347.499,229.409 347.490 C 229.627 347.483,231.482 347.110,233.531 346.660 C 235.580 346.211,237.355 345.950,237.475 346.080 C 237.960 346.607,238.376 349.581,237.983 349.712 C 237.770 349.783,235.867 350.177,233.755 350.588 L 229.914 351.335 230.145 352.890 C 230.449 354.929,230.054 354.854,235.024 353.825 C 240.715 352.648,240.366 352.598,240.647 354.636 C 240.776 355.580,240.818 356.416,240.740 356.494 C 240.339 356.895,226.878 359.440,226.624 359.163 C 226.257 358.762,222.761 341.733,222.997 341.497 C 223.230 341.263,234.969 338.800,236.128 338.742 C 236.951 338.700,237.064 338.851,237.405 340.439 M247.187 339.421 L 245.262 340.092 246.171 342.635 C 247.196 345.505,247.311 345.545,250.498 344.136 C 255.142 342.081,252.076 337.715,247.187 339.421 M172.303 340.326 C 179.874 341.823,179.285 341.513,178.804 343.755 C 178.469 345.318,178.339 345.506,177.697 345.353 C 174.822 344.671,169.299 343.713,169.142 343.870 C 168.798 344.214,168.359 346.649,168.603 346.863 C 168.733 346.978,170.644 347.420,172.848 347.845 L 176.856 348.617 176.640 349.838 C 176.142 352.656,176.428 352.563,171.390 351.536 C 167.573 350.757,167.485 350.784,167.160 352.787 L 166.934 354.177 171.734 355.126 L 176.534 356.075 176.306 357.794 C 176.180 358.740,176.008 359.584,175.922 359.669 C 175.589 360.003,161.815 357.147,161.643 356.709 C 161.500 356.343,164.233 341.638,164.818 339.627 C 165.042 338.859,164.748 338.832,172.303 340.326 M221.329 343.353 C 221.062 344.238,219.833 348.333,218.598 352.454 C 215.844 361.637,216.313 360.881,213.376 360.881 L 210.977 360.881 206.794 352.244 C 203.962 346.396,202.738 343.534,203.005 343.380 C 203.222 343.255,204.365 343.114,205.546 343.066 L 207.692 342.978 210.486 349.325 L 213.281 355.672 214.368 351.502 C 214.966 349.209,215.765 346.159,216.143 344.725 L 216.830 342.117 218.407 341.992 C 219.274 341.923,220.395 341.839,220.898 341.805 L 221.813 341.744 221.329 343.353 M186.521 342.547 C 186.631 342.657,186.468 345.684,186.157 349.274 C 185.847 352.863,185.596 355.984,185.599 356.208 C 185.606 356.664,186.593 356.861,190.432 357.170 L 193.057 357.382 193.057 359.227 C 193.057 360.518,192.911 361.127,192.570 361.258 C 192.129 361.427,180.540 360.516,180.347 360.296 C 180.302 360.245,180.621 356.317,181.057 351.566 C 181.492 346.816,181.855 342.718,181.864 342.460 C 181.880 341.986,186.038 342.064,186.521 342.547 M201.181 351.482 C 201.175 362.071,201.364 361.389,198.436 361.389 L 196.105 361.389 196.107 354.530 C 196.109 350.758,196.207 346.643,196.326 345.385 L 196.542 343.099 198.864 343.099 L 201.185 343.099 201.181 351.482 " stroke="none" fill="#343c3c" fill-rule="evenodd"></path><path id="path2" d="M198.561 18.875 C 199.259 18.948,200.402 18.948,201.101 18.875 C 201.799 18.802,201.228 18.742,199.831 18.742 C 198.434 18.742,197.862 18.802,198.561 18.875 M71.457 71.719 L 68.586 74.682 71.550 71.811 C 74.302 69.144,74.667 68.755,74.421 68.755 C 74.370 68.755,73.037 70.089,71.457 71.719 M76.527 77.138 L 75.360 78.408 76.630 77.241 C 77.812 76.155,78.056 75.868,77.797 75.868 C 77.741 75.868,77.169 76.439,76.527 77.138 M106.000 108.975 L 104.149 110.923 106.097 109.072 C 107.906 107.352,108.199 107.028,107.948 107.028 C 107.895 107.028,107.018 107.904,106.000 108.975 M286.367 112.447 C 287.285 113.378,288.112 114.141,288.205 114.141 C 288.298 114.141,287.624 113.378,286.706 112.447 C 285.789 111.516,284.962 110.754,284.869 110.754 C 284.776 110.754,285.450 111.516,286.367 112.447 M177.307 167.655 C 178.035 168.400,178.706 169.009,178.800 169.009 C 178.893 169.009,178.374 168.400,177.646 167.655 C 176.918 166.909,176.247 166.300,176.154 166.300 C 176.061 166.300,176.580 166.909,177.307 167.655 M68.848 197.121 C 68.848 197.959,68.914 198.302,68.994 197.883 C 69.075 197.464,69.075 196.778,68.994 196.359 C 68.914 195.940,68.848 196.283,68.848 197.121 M25.488 197.968 C 25.491 198.713,25.561 198.978,25.642 198.557 C 25.723 198.135,25.720 197.526,25.635 197.202 C 25.550 196.878,25.484 197.223,25.488 197.968 M381.130 200.339 C 381.132 201.270,381.198 201.611,381.276 201.096 C 381.354 200.581,381.352 199.819,381.271 199.403 C 381.191 198.986,381.127 199.407,381.130 200.339 M323.195 200.508 C 323.195 201.160,323.264 201.427,323.349 201.101 C 323.435 200.775,323.435 200.241,323.349 199.915 C 323.264 199.589,323.195 199.856,323.195 200.508 M68.852 203.048 C 68.855 203.980,68.920 204.321,68.998 203.806 C 69.076 203.291,69.074 202.529,68.994 202.112 C 68.913 201.696,68.850 202.117,68.852 203.048 M25.494 203.556 C 25.494 204.395,25.561 204.738,25.641 204.318 C 25.722 203.899,25.722 203.213,25.641 202.794 C 25.561 202.375,25.494 202.718,25.494 203.556 M267.369 228.620 C 267.369 231.693,267.420 232.951,267.483 231.414 C 267.546 229.877,267.546 227.362,267.483 225.826 C 267.420 224.289,267.369 225.546,267.369 228.620 M256.550 277.815 L 254.869 279.594 256.647 277.913 C 257.625 276.988,258.425 276.188,258.425 276.135 C 258.425 275.882,258.111 276.163,256.550 277.815 M110.415 285.627 C 110.415 285.685,110.910 286.180,111.516 286.727 L 112.616 287.722 111.622 286.622 C 110.694 285.595,110.415 285.365,110.415 285.627 M193.480 323.688 C 193.806 323.773,194.340 323.773,194.666 323.688 C 194.992 323.603,194.725 323.533,194.073 323.533 C 193.421 323.533,193.154 323.603,193.480 323.688 M321.571 324.555 L 320.576 325.656 321.677 324.661 C 322.282 324.114,322.777 323.619,322.777 323.561 C 322.777 323.299,322.498 323.529,321.571 324.555 M327.858 328.704 C 327.035 329.543,326.438 330.229,326.531 330.229 C 326.624 330.229,327.374 329.543,328.196 328.704 C 329.019 327.866,329.616 327.180,329.523 327.180 C 329.430 327.180,328.680 327.866,327.858 328.704 M197.883 331.139 C 198.209 331.225,198.743 331.225,199.069 331.139 C 199.395 331.054,199.128 330.985,198.476 330.985 C 197.824 330.985,197.557 331.054,197.883 331.139 M200.958 351.736 C 200.959 353.040,201.021 353.532,201.094 352.829 C 201.167 352.126,201.166 351.059,201.091 350.458 C 201.016 349.857,200.956 350.432,200.958 351.736 M196.219 354.953 C 196.219 356.351,196.279 356.922,196.352 356.224 C 196.425 355.525,196.425 354.382,196.352 353.683 C 196.279 352.985,196.219 353.556,196.219 354.953 M196.867 374.493 C 197.193 374.578,197.727 374.578,198.052 374.493 C 198.378 374.407,198.112 374.338,197.460 374.338 C 196.808 374.338,196.541 374.407,196.867 374.493 M201.443 374.499 C 201.865 374.580,202.474 374.577,202.798 374.492 C 203.122 374.407,202.777 374.341,202.032 374.345 C 201.287 374.348,201.022 374.418,201.443 374.499 " stroke="none" fill="#828579" fill-rule="evenodd"></path><path id="path3" d="M187.722 19.200 C 188.048 19.286,188.582 19.286,188.908 19.200 C 189.234 19.115,188.967 19.046,188.315 19.046 C 187.663 19.046,187.396 19.115,187.722 19.200 M209.738 26.313 C 210.064 26.398,210.597 26.398,210.923 26.313 C 211.249 26.228,210.982 26.158,210.330 26.158 C 209.678 26.158,209.412 26.228,209.738 26.313 M166.046 53.747 C 166.372 53.833,166.905 53.833,167.231 53.747 C 167.557 53.662,167.290 53.593,166.638 53.593 C 165.986 53.593,165.720 53.662,166.046 53.747 M165.707 57.473 C 166.033 57.558,166.566 57.558,166.892 57.473 C 167.218 57.388,166.952 57.318,166.300 57.318 C 165.648 57.318,165.381 57.388,165.707 57.473 M165.034 61.208 C 165.549 61.286,166.311 61.284,166.728 61.204 C 167.144 61.123,166.723 61.060,165.792 61.062 C 164.860 61.065,164.519 61.130,165.034 61.208 M323.793 67.845 C 323.793 67.903,324.289 68.399,324.894 68.946 L 325.995 69.941 325.000 68.840 C 324.073 67.814,323.793 67.584,323.793 67.845 M193.656 69.678 C 194.264 69.754,195.179 69.752,195.688 69.675 C 196.197 69.597,195.699 69.536,194.581 69.538 C 193.463 69.540,193.047 69.603,193.656 69.678 M204.153 69.672 C 204.574 69.753,205.184 69.750,205.508 69.665 C 205.832 69.581,205.487 69.514,204.742 69.518 C 203.997 69.522,203.732 69.591,204.153 69.672 M316.681 71.232 C 316.681 71.290,317.176 71.786,317.782 72.333 L 318.882 73.328 317.888 72.227 C 316.960 71.201,316.681 70.970,316.681 71.232 M79.070 74.598 L 77.731 76.037 79.170 74.698 C 80.509 73.453,80.765 73.158,80.509 73.158 C 80.454 73.158,79.806 73.806,79.070 74.598 M198.222 76.796 C 199.479 76.862,201.537 76.862,202.794 76.796 C 204.052 76.731,203.023 76.678,200.508 76.678 C 197.993 76.678,196.964 76.731,198.222 76.796 M73.836 79.763 C 73.013 80.601,72.416 81.287,72.509 81.287 C 72.602 81.287,73.352 80.601,74.174 79.763 C 74.997 78.925,75.594 78.239,75.501 78.239 C 75.408 78.239,74.658 78.925,73.836 79.763 M289.246 105.102 C 289.246 105.160,289.742 105.655,290.347 106.203 L 291.448 107.197 290.453 106.097 C 289.526 105.070,289.246 104.840,289.246 105.102 M189.767 105.924 C 190.845 105.991,192.521 105.991,193.492 105.922 C 194.464 105.854,193.582 105.799,191.533 105.800 C 189.483 105.801,188.689 105.856,189.767 105.924 M197.883 106.245 C 198.209 106.331,198.743 106.331,199.069 106.245 C 199.395 106.160,199.128 106.090,198.476 106.090 C 197.824 106.090,197.557 106.160,197.883 106.245 M196.698 111.331 C 197.117 111.412,197.803 111.412,198.222 111.331 C 198.641 111.251,198.298 111.185,197.460 111.185 C 196.622 111.185,196.279 111.251,196.698 111.331 M288.230 114.247 C 288.230 114.305,288.726 114.800,289.331 115.347 L 290.432 116.342 289.437 115.241 C 288.510 114.215,288.230 113.985,288.230 114.247 M242.428 129.966 C 243.036 130.041,243.951 130.040,244.460 129.963 C 244.969 129.885,244.471 129.824,243.353 129.826 C 242.235 129.827,241.819 129.891,242.428 129.966 M44.309 150.296 C 50.703 150.348,61.067 150.348,67.341 150.296 C 73.614 150.245,68.383 150.202,55.715 150.202 C 43.048 150.202,37.915 150.245,44.309 150.296 M332.201 150.296 C 338.595 150.348,348.959 150.348,355.232 150.296 C 361.506 150.245,356.274 150.202,343.607 150.202 C 330.940 150.202,325.807 150.245,332.201 150.296 M38.781 157.402 C 59.881 157.636,76.128 157.639,75.985 157.409 C 75.899 157.269,65.663 157.190,53.240 157.233 C 40.817 157.276,34.310 157.352,38.781 157.402 M323.338 157.409 C 323.251 157.549,333.439 157.663,345.978 157.663 C 358.516 157.663,368.705 157.549,368.618 157.409 C 368.532 157.269,358.344 157.155,345.978 157.155 C 333.612 157.155,323.424 157.269,323.338 157.409 M146.577 158.755 C 147.186 158.831,148.100 158.829,148.609 158.752 C 149.118 158.674,148.620 158.613,147.502 158.615 C 146.384 158.617,145.968 158.680,146.577 158.755 M141.723 160.983 C 141.630 161.226,141.597 163.398,141.649 165.810 L 141.744 170.195 143.355 170.226 L 144.966 170.257 143.440 170.123 L 141.914 169.988 141.914 165.403 L 141.914 160.818 143.745 160.934 C 144.752 160.998,145.505 160.936,145.418 160.796 C 145.137 160.344,141.906 160.507,141.723 160.983 M150.466 160.785 C 150.978 160.862,151.816 160.862,152.329 160.785 C 152.841 160.707,152.422 160.643,151.397 160.643 C 150.373 160.643,149.953 160.707,150.466 160.785 M149.422 164.034 C 149.381 164.957,149.245 165.256,148.942 165.085 C 148.605 164.895,148.604 164.938,148.936 165.296 C 149.542 165.949,149.767 165.533,149.614 164.048 L 149.479 162.743 149.422 164.034 M179.678 164.606 C 180.596 165.538,181.422 166.300,181.516 166.300 C 181.609 166.300,180.934 165.538,180.017 164.606 C 179.100 163.675,178.273 162.913,178.180 162.913 C 178.086 162.913,178.761 163.675,179.678 164.606 M145.059 166.469 C 145.061 167.401,145.127 167.741,145.205 167.227 C 145.283 166.712,145.281 165.950,145.200 165.533 C 145.120 165.116,145.056 165.538,145.059 166.469 M150.466 170.268 C 150.978 170.346,151.816 170.346,152.329 170.268 C 152.841 170.190,152.422 170.127,151.397 170.127 C 150.373 170.127,149.953 170.190,150.466 170.268 M303.294 200.169 C 303.294 214.606,303.336 220.512,303.387 213.294 C 303.438 206.075,303.438 194.263,303.387 187.045 C 303.336 179.826,303.294 185.732,303.294 200.169 M154.941 179.932 L 153.260 181.710 155.038 180.030 C 156.016 179.105,156.816 178.305,156.816 178.252 C 156.816 177.999,156.502 178.280,154.941 179.932 M147.142 187.384 L 146.147 188.484 147.248 187.490 C 148.274 186.562,148.505 186.283,148.243 186.283 C 148.185 186.283,147.689 186.778,147.142 187.384 M18.782 200.169 C 18.782 207.528,18.827 210.538,18.882 206.859 C 18.937 203.180,18.937 197.159,18.882 193.480 C 18.827 189.801,18.782 192.811,18.782 200.169 M112.028 191.603 C 112.449 191.684,113.059 191.681,113.382 191.596 C 113.706 191.511,113.362 191.445,112.616 191.449 C 111.871 191.452,111.606 191.522,112.028 191.603 M116.386 191.631 C 116.295 191.779,116.781 191.844,117.467 191.776 C 119.341 191.591,119.564 191.420,117.971 191.390 C 117.190 191.375,116.477 191.484,116.386 191.631 M122.354 191.597 C 122.680 191.682,123.213 191.682,123.539 191.597 C 123.865 191.512,123.599 191.442,122.947 191.442 C 122.295 191.442,122.028 191.512,122.354 191.597 M174.243 191.791 C 174.149 192.036,174.114 194.670,174.165 197.643 L 174.259 203.048 179.001 203.048 L 183.743 203.048 183.773 201.863 C 183.803 200.682,183.803 200.681,183.668 201.778 L 183.532 202.879 178.980 202.879 L 174.428 202.879 174.428 197.290 L 174.428 191.702 179.001 191.702 L 183.573 191.702 183.573 192.705 L 183.573 193.708 180.693 193.827 L 177.814 193.945 180.778 193.924 L 183.743 193.903 183.743 192.718 L 183.743 191.533 179.079 191.438 C 175.463 191.365,174.376 191.444,174.243 191.791 M25.511 194.750 C 25.511 195.961,25.572 196.456,25.647 195.851 C 25.722 195.246,25.722 194.255,25.647 193.649 C 25.572 193.044,25.511 193.539,25.511 194.750 M193.135 194.750 C 193.135 195.402,193.205 195.669,193.290 195.343 C 193.375 195.017,193.375 194.483,193.290 194.157 C 193.205 193.831,193.135 194.098,193.135 194.750 M330.314 195.258 C 330.318 196.003,330.387 196.268,330.468 195.847 C 330.549 195.426,330.546 194.816,330.461 194.492 C 330.377 194.168,330.310 194.513,330.314 195.258 M185.710 197.290 C 185.712 198.408,185.776 198.825,185.851 198.216 C 185.926 197.607,185.925 196.693,185.847 196.184 C 185.770 195.675,185.708 196.173,185.710 197.290 M180.759 196.018 L 183.532 196.132 183.668 197.219 C 183.799 198.273,183.805 198.268,183.858 197.036 L 183.912 195.766 180.948 195.835 L 177.985 195.904 180.759 196.018 M323.221 197.629 C 323.223 198.747,323.286 199.163,323.361 198.554 C 323.437 197.946,323.435 197.031,323.358 196.522 C 323.281 196.013,323.219 196.511,323.221 197.629 M68.852 200.000 C 68.855 200.931,68.920 201.272,68.998 200.757 C 69.076 200.243,69.074 199.481,68.994 199.064 C 68.913 198.647,68.850 199.069,68.852 200.000 M362.151 200.000 C 362.155 200.745,362.225 201.010,362.306 200.589 C 362.387 200.167,362.384 199.558,362.299 199.234 C 362.214 198.910,362.148 199.255,362.151 200.000 M119.525 200.948 C 119.683 201.106,120.327 201.182,120.956 201.117 C 122.072 201.002,122.065 200.995,120.669 200.830 C 119.882 200.737,119.368 200.790,119.525 200.948 M113.717 201.086 C 114.136 201.166,114.822 201.166,115.241 201.086 C 115.660 201.005,115.318 200.939,114.479 200.939 C 113.641 200.939,113.298 201.005,113.717 201.086 M323.221 203.387 C 323.223 204.505,323.286 204.921,323.361 204.312 C 323.437 203.704,323.435 202.789,323.358 202.280 C 323.281 201.771,323.219 202.269,323.221 203.387 M330.314 205.758 C 330.318 206.503,330.387 206.768,330.468 206.347 C 330.549 205.925,330.546 205.316,330.461 204.992 C 330.377 204.668,330.310 205.013,330.314 205.758 M25.499 206.435 C 25.502 207.367,25.567 207.707,25.645 207.193 C 25.723 206.678,25.721 205.916,25.641 205.499 C 25.560 205.083,25.497 205.504,25.499 206.435 M263.990 229.805 C 263.990 234.276,264.039 236.058,264.097 233.766 C 264.156 231.473,264.156 227.815,264.097 225.637 C 264.038 223.459,263.990 225.334,263.990 229.805 M148.772 225.805 C 149.098 225.890,149.632 225.890,149.958 225.805 C 150.284 225.720,150.017 225.650,149.365 225.650 C 148.713 225.650,148.446 225.720,148.772 225.805 M176.609 227.688 L 175.614 228.789 176.715 227.794 C 177.320 227.247,177.815 226.752,177.815 226.694 C 177.815 226.432,177.536 226.662,176.609 227.688 M179.836 229.890 L 177.985 231.837 179.932 229.986 C 181.742 228.266,182.035 227.942,181.784 227.942 C 181.731 227.942,180.854 228.819,179.836 229.890 M146.577 235.978 C 147.186 236.053,148.100 236.052,148.609 235.974 C 149.118 235.897,148.620 235.835,147.502 235.837 C 146.384 235.839,145.968 235.903,146.577 235.978 M41.744 242.422 C 48.031 242.473,58.319 242.473,64.606 242.422 C 70.893 242.370,65.749 242.328,53.175 242.328 C 40.601 242.328,35.457 242.370,41.744 242.422 M334.716 242.422 C 341.003 242.473,351.291 242.473,357.578 242.422 C 363.865 242.370,358.721 242.328,346.147 242.328 C 333.573 242.328,328.429 242.370,334.716 242.422 M103.980 289.352 C 103.980 289.411,104.475 289.906,105.080 290.453 L 106.181 291.448 105.186 290.347 C 104.259 289.321,103.980 289.091,103.980 289.352 M200.254 291.851 C 200.580 291.936,201.113 291.936,201.439 291.851 C 201.765 291.766,201.499 291.696,200.847 291.696 C 200.195 291.696,199.928 291.766,200.254 291.851 M207.028 292.203 C 207.727 292.276,208.870 292.276,209.568 292.203 C 210.267 292.130,209.695 292.070,208.298 292.070 C 206.901 292.070,206.329 292.130,207.028 292.203 M203.980 297.279 C 204.492 297.357,205.330 297.357,205.843 297.279 C 206.355 297.201,205.936 297.138,204.911 297.138 C 203.887 297.138,203.467 297.201,203.980 297.279 M211.436 297.279 C 211.950 297.357,212.713 297.355,213.129 297.275 C 213.546 297.194,213.124 297.131,212.193 297.133 C 211.262 297.136,210.921 297.202,211.436 297.279 M325.296 320.830 L 324.301 321.931 325.402 320.936 C 326.008 320.389,326.503 319.893,326.503 319.835 C 326.503 319.573,326.223 319.804,325.296 320.830 M200.416 331.150 C 201.017 331.225,202.084 331.227,202.787 331.153 C 203.489 331.080,202.997 331.019,201.693 331.017 C 200.390 331.016,199.815 331.076,200.416 331.150 M200.970 346.317 C 200.971 348.180,201.028 348.898,201.097 347.914 C 201.165 346.930,201.165 345.406,201.095 344.527 C 201.026 343.649,200.970 344.454,200.970 346.317 M150.466 349.768 C 150.792 349.853,151.325 349.853,151.651 349.768 C 151.977 349.683,151.710 349.613,151.058 349.613 C 150.406 349.613,150.140 349.683,150.466 349.768 M150.974 353.499 C 151.393 353.580,152.079 353.580,152.498 353.499 C 152.917 353.418,152.574 353.352,151.736 353.352 C 150.898 353.352,150.555 353.418,150.974 353.499 M196.213 359.356 C 196.213 360.567,196.275 361.063,196.350 360.457 C 196.425 359.852,196.425 358.861,196.350 358.256 C 196.275 357.650,196.213 358.146,196.213 359.356 M193.311 374.504 C 193.916 374.579,194.907 374.579,195.512 374.504 C 196.118 374.429,195.622 374.368,194.412 374.368 C 193.201 374.368,192.705 374.429,193.311 374.504 M204.141 374.504 C 204.743 374.578,205.810 374.580,206.512 374.506 C 207.215 374.433,206.723 374.372,205.419 374.370 C 204.115 374.369,203.540 374.429,204.141 374.504 M205.339 381.615 C 205.854 381.693,206.616 381.691,207.033 381.610 C 207.449 381.530,207.028 381.466,206.097 381.469 C 205.165 381.471,204.824 381.537,205.339 381.615 " stroke="none" fill="#9c9c8c" fill-rule="evenodd"></path><path id="path4" d="M193.819 18.875 C 194.517 18.948,195.660 18.948,196.359 18.875 C 197.058 18.802,196.486 18.742,195.089 18.742 C 193.692 18.742,193.120 18.802,193.819 18.875 M203.472 18.876 C 204.263 18.948,205.559 18.948,206.351 18.876 C 207.142 18.805,206.494 18.747,204.911 18.747 C 203.328 18.747,202.680 18.805,203.472 18.876 M192.803 26.313 C 193.129 26.398,193.662 26.398,193.988 26.313 C 194.314 26.228,194.047 26.158,193.395 26.158 C 192.743 26.158,192.477 26.228,192.803 26.313 M206.185 26.319 C 206.606 26.400,207.216 26.397,207.540 26.312 C 207.864 26.228,207.519 26.161,206.774 26.165 C 206.029 26.169,205.764 26.238,206.185 26.319 M321.423 76.037 C 322.434 77.062,323.338 77.900,323.432 77.900 C 323.525 77.900,322.773 77.062,321.761 76.037 C 320.749 75.013,319.845 74.174,319.752 74.174 C 319.659 74.174,320.411 75.013,321.423 76.037 M67.549 75.614 L 66.554 76.715 67.655 75.720 C 68.681 74.793,68.911 74.513,68.649 74.513 C 68.591 74.513,68.096 75.008,67.549 75.614 M324.471 79.022 C 324.471 79.080,324.966 79.576,325.572 80.123 L 326.672 81.118 325.678 80.017 C 324.750 78.991,324.471 78.760,324.471 79.022 M108.869 106.097 L 107.875 107.197 108.975 106.203 C 109.581 105.655,110.076 105.160,110.076 105.102 C 110.076 104.840,109.797 105.070,108.869 106.097 M193.992 111.332 C 194.413 111.413,195.023 111.410,195.347 111.325 C 195.671 111.240,195.326 111.174,194.581 111.178 C 193.836 111.181,193.571 111.251,193.992 111.332 M109.208 116.257 L 108.213 117.358 109.314 116.363 C 109.920 115.816,110.415 115.321,110.415 115.263 C 110.415 115.001,110.135 115.231,109.208 116.257 M142.930 125.487 C 142.107 126.325,141.510 127.011,141.603 127.011 C 141.696 127.011,142.446 126.325,143.268 125.487 C 144.091 124.649,144.688 123.963,144.595 123.963 C 144.502 123.963,143.752 124.649,142.930 125.487 M146.063 150.962 C 146.575 151.040,147.413 151.040,147.925 150.962 C 148.438 150.885,148.019 150.821,146.994 150.821 C 145.970 150.821,145.550 150.885,146.063 150.962 M144.857 155.020 C 145.078 155.178,145.321 156.142,145.397 157.162 L 145.533 159.018 145.502 157.012 C 145.478 155.536,145.336 154.971,144.962 154.870 C 144.607 154.774,144.576 154.819,144.857 155.020 M149.444 161.558 C 149.444 162.210,149.513 162.477,149.598 162.151 C 149.684 161.825,149.684 161.291,149.598 160.965 C 149.513 160.639,149.444 160.906,149.444 161.558 M153.226 165.453 C 153.227 168.247,153.279 169.345,153.343 167.893 C 153.406 166.441,153.406 164.155,153.342 162.813 C 153.278 161.471,153.226 162.659,153.226 165.453 M145.040 169.348 C 145.040 170.000,145.110 170.267,145.195 169.941 C 145.281 169.615,145.281 169.081,145.195 168.755 C 145.110 168.429,145.040 168.696,145.040 169.348 M299.906 201.185 C 299.906 214.318,299.948 219.691,300.000 213.124 C 300.051 206.558,300.051 195.813,300.000 189.246 C 299.948 182.680,299.906 188.052,299.906 201.185 M150.190 184.335 L 149.196 185.436 150.296 184.441 C 151.322 183.514,151.553 183.235,151.291 183.235 C 151.233 183.235,150.738 183.730,150.190 184.335 M288.705 189.331 C 288.705 192.218,288.757 193.400,288.821 191.956 C 288.884 190.512,288.884 188.150,288.821 186.706 C 288.757 185.262,288.705 186.444,288.705 189.331 M143.078 191.109 L 142.083 192.210 143.184 191.215 C 144.210 190.288,144.440 190.008,144.179 190.008 C 144.120 190.008,143.625 190.504,143.078 191.109 M373.667 193.903 C 373.671 194.649,373.740 194.914,373.821 194.492 C 373.902 194.071,373.899 193.461,373.814 193.137 C 373.730 192.814,373.663 193.158,373.667 193.903 M381.149 196.274 C 381.150 197.765,381.210 198.332,381.281 197.536 C 381.353 196.739,381.352 195.520,381.279 194.826 C 381.206 194.132,381.148 194.784,381.149 196.274 M187.638 195.089 L 185.775 195.317 187.533 195.372 C 188.500 195.403,189.385 195.275,189.500 195.089 C 189.616 194.903,189.663 194.775,189.605 194.805 C 189.548 194.836,188.662 194.963,187.638 195.089 M101.375 196.952 C 101.377 198.069,101.440 198.486,101.516 197.877 C 101.591 197.268,101.589 196.354,101.512 195.845 C 101.435 195.336,101.373 195.834,101.375 196.952 M107.196 195.332 L 109.060 195.461 109.060 197.290 L 109.060 199.119 107.196 199.249 L 105.331 199.378 107.280 199.350 L 109.229 199.323 109.229 197.290 L 109.229 195.258 107.280 195.230 L 105.331 195.203 107.196 195.332 M177.945 198.625 C 177.393 200.066,177.864 200.338,180.953 200.360 L 183.914 200.381 181.034 200.262 C 178.245 200.147,178.154 200.117,178.154 199.323 C 178.154 198.526,178.239 198.499,181.118 198.389 L 184.081 198.276 181.107 198.207 C 178.782 198.152,178.092 198.244,177.945 198.625 M25.499 200.677 C 25.502 201.609,25.567 201.950,25.645 201.435 C 25.723 200.920,25.721 200.158,25.641 199.741 C 25.560 199.325,25.497 199.746,25.499 200.677 M186.283 199.344 C 187.471 199.606,189.600 199.653,189.452 199.414 C 189.363 199.270,188.500 199.171,187.533 199.193 C 186.566 199.214,186.003 199.282,186.283 199.344 M381.151 204.572 C 381.151 206.156,381.210 206.804,381.281 206.012 C 381.352 205.220,381.352 203.925,381.281 203.133 C 381.210 202.341,381.151 202.989,381.151 204.572 M142.062 212.447 L 141.067 213.548 142.168 212.553 C 142.773 212.006,143.268 211.511,143.268 211.452 C 143.268 211.191,142.989 211.421,142.062 212.447 M276.853 223.201 C 276.853 226.274,276.904 227.532,276.967 225.995 C 277.029 224.458,277.029 221.943,276.967 220.406 C 276.904 218.870,276.853 220.127,276.853 223.201 M114.141 229.403 C 114.141 229.461,114.636 229.957,115.241 230.504 L 116.342 231.499 115.347 230.398 C 114.420 229.372,114.141 229.142,114.141 229.403 M145.406 237.595 C 145.407 238.713,145.471 239.129,145.546 238.521 C 145.621 237.912,145.620 236.997,145.543 236.488 C 145.465 235.979,145.404 236.478,145.406 237.595 M156.562 273.222 C 156.888 273.308,157.422 273.308,157.748 273.222 C 158.074 273.137,157.807 273.068,157.155 273.068 C 156.503 273.068,156.236 273.137,156.562 273.222 M289.394 284.928 L 288.400 286.029 289.500 285.034 C 290.106 284.487,290.601 283.992,290.601 283.933 C 290.601 283.672,290.322 283.902,289.394 284.928 M112.447 287.659 C 112.447 287.717,112.942 288.213,113.548 288.760 L 114.649 289.754 113.654 288.654 C 112.727 287.628,112.447 287.397,112.447 287.659 M284.653 289.670 L 283.658 290.771 284.759 289.776 C 285.364 289.229,285.859 288.733,285.859 288.675 C 285.859 288.413,285.580 288.644,284.653 289.670 M289.739 295.089 L 288.400 296.528 289.839 295.190 C 290.631 294.453,291.279 293.805,291.279 293.750 C 291.279 293.494,290.984 293.750,289.739 295.089 M195.682 323.694 C 196.101 323.774,196.787 323.774,197.206 323.694 C 197.625 323.613,197.282 323.547,196.444 323.547 C 195.605 323.547,195.262 323.613,195.682 323.694 M330.906 325.656 C 330.083 326.494,329.486 327.180,329.580 327.180 C 329.673 327.180,330.422 326.494,331.245 325.656 C 332.067 324.818,332.664 324.132,332.571 324.132 C 332.478 324.132,331.729 324.818,330.906 325.656 M324.809 331.753 C 323.987 332.591,323.390 333.277,323.483 333.277 C 323.576 333.277,324.325 332.591,325.148 331.753 C 325.971 330.914,326.568 330.229,326.475 330.229 C 326.382 330.229,325.632 330.914,324.809 331.753 M195.178 331.149 C 195.693 331.227,196.455 331.225,196.872 331.144 C 197.288 331.064,196.867 331.000,195.936 331.003 C 195.004 331.005,194.663 331.071,195.178 331.149 M196.229 349.365 C 196.230 351.228,196.286 351.947,196.355 350.962 C 196.424 349.978,196.423 348.454,196.353 347.575 C 196.284 346.697,196.228 347.502,196.229 349.365 M200.970 357.155 C 200.971 359.018,201.028 359.737,201.097 358.752 C 201.165 357.768,201.165 356.244,201.095 355.365 C 201.026 354.487,200.970 355.292,200.970 357.155 M199.073 374.499 C 199.494 374.580,200.103 374.577,200.427 374.492 C 200.751 374.407,200.406 374.341,199.661 374.345 C 198.916 374.348,198.651 374.418,199.073 374.499 " stroke="none" fill="#646c63" fill-rule="evenodd"></path></g></svg>